<svg width="16" height="14" viewBox="0 0 16 14" fill="none" xmlns="http://www.w3.org/2000/svg">
<path d="M15.7001 0.766773L13.3709 12.9266C13.3709 12.9266 13.045 13.7696 12.1497 13.3653L6.77564 9.09829L6.75072 9.08572C7.47664 8.41073 13.1057 3.16961 13.3517 2.93204C13.7326 2.56411 13.4961 2.34506 13.0539 2.623L4.73911 8.0911L1.53127 6.97339C1.53127 6.97339 1.02645 6.78744 0.977882 6.38311C0.928678 5.97811 1.54788 5.75907 1.54788 5.75907L14.6253 0.446483C14.6253 0.446483 15.7001 -0.0425554 15.7001 0.766773Z" fill="url(#paint0_linear_91_183)"/>
<path d="M15.7001 0.766773L13.3709 12.9266C13.3709 12.9266 13.045 13.7696 12.1497 13.3653L6.77564 9.09829L6.75072 9.08572C7.47664 8.41073 13.1057 3.16961 13.3517 2.93204C13.7326 2.56411 13.4961 2.34506 13.0539 2.623L4.73911 8.0911L1.53127 6.97339C1.53127 6.97339 1.02645 6.78744 0.977882 6.38311C0.928678 5.97811 1.54788 5.75907 1.54788 5.75907L14.6253 0.446483C14.6253 0.446483 15.7001 -0.0425554 15.7001 0.766773Z" fill="#FEFEFE"/>
<defs>
<linearGradient id="paint0_linear_91_183" x1="3.7211" y1="6.88764" x2="12.9853" y2="6.88764" gradientUnits="userSpaceOnUse">
<stop stop-color="#B37323"/>
<stop offset="0.168627" stop-color="#DCB04B"/>
<stop offset="0.490196" stop-color="#B37323"/>
<stop offset="0.8" stop-color="#DAB04B"/>
<stop offset="1" stop-color="#B37323"/>
</linearGradient>
</defs>
</svg>
