<svg width="19" height="11" viewBox="0 0 19 11" fill="none" xmlns="http://www.w3.org/2000/svg">
<path d="M10.2615 10.925C4.43622 10.925 1.11354 6.85213 0.975098 0.0749512H3.89309C3.98893 5.04922 6.14015 7.15623 7.84409 7.59067V0.0749512H10.5917V4.36499C12.2743 4.18036 14.0421 2.2254 14.6385 0.0749512H17.3861C17.1614 1.19024 16.7134 2.24623 16.0702 3.17689C15.4271 4.10755 14.6025 4.89284 13.6481 5.48366C14.7134 6.02351 15.6544 6.78761 16.4088 7.72555C17.1633 8.66349 17.7142 9.75395 18.0251 10.925H15.0006C14.7215 9.90785 14.1543 8.99738 13.37 8.30764C12.5857 7.6179 11.6192 7.17959 10.5917 7.04762V10.925H10.2615Z" fill="url(#paint0_linear_91_167)"/>
<path d="M10.2615 10.925C4.43622 10.925 1.11354 6.85213 0.975098 0.0749512H3.89309C3.98893 5.04922 6.14015 7.15623 7.84409 7.59067V0.0749512H10.5917V4.36499C12.2743 4.18036 14.0421 2.2254 14.6385 0.0749512H17.3861C17.1614 1.19024 16.7134 2.24623 16.0702 3.17689C15.4271 4.10755 14.6025 4.89284 13.6481 5.48366C14.7134 6.02351 15.6544 6.78761 16.4088 7.72555C17.1633 8.66349 17.7142 9.75395 18.0251 10.925H15.0006C14.7215 9.90785 14.1543 8.99738 13.37 8.30764C12.5857 7.6179 11.6192 7.17959 10.5917 7.04762V10.925H10.2615Z" fill="#FEFEFE"/>
<defs>
<linearGradient id="paint0_linear_91_167" x1="4.15468" y1="5.50003" x2="14.8816" y2="5.50003" gradientUnits="userSpaceOnUse">
<stop stop-color="#B37323"/>
<stop offset="0.168627" stop-color="#DCB04B"/>
<stop offset="0.490196" stop-color="#B37323"/>
<stop offset="0.8" stop-color="#DAB04B"/>
<stop offset="1" stop-color="#B37323"/>
</linearGradient>
</defs>
</svg>
