<svg width="18" height="18" viewBox="0 0 18 18" fill="none" xmlns="http://www.w3.org/2000/svg">
<path d="M14.6433 3.34841C13.1122 1.82263 11.0707 0.974976 8.91585 0.974976C4.43597 0.974976 0.806706 4.59164 0.806706 9.05597C0.806706 10.4687 1.20366 11.8815 1.88415 13.0682L0.75 17.25L5.05976 16.1198C6.25061 16.7414 7.55488 17.0804 8.91585 17.0804C13.3957 17.0804 17.025 13.4638 17.025 8.99946C16.9683 6.90857 16.1744 4.87419 14.6433 3.34841ZM12.8287 11.938C12.6585 12.3901 11.8646 12.8422 11.4677 12.8987C11.1274 12.9552 10.6738 12.9552 10.2201 12.8422C9.93659 12.7291 9.53963 12.6161 9.08598 12.3901C7.04451 11.5424 5.74025 9.50805 5.62683 9.33852C5.51342 9.2255 4.77622 8.26482 4.77622 7.24763C4.77622 6.23044 5.28658 5.77836 5.45671 5.55232C5.62683 5.32628 5.85366 5.32628 6.02378 5.32628C6.13719 5.32628 6.30731 5.32628 6.42073 5.32628C6.53414 5.32628 6.70427 5.26977 6.87439 5.66534C7.04451 6.06091 7.44146 7.0781 7.49817 7.13461C7.55488 7.24763 7.55488 7.36065 7.49817 7.47367C7.44146 7.58669 7.38475 7.69971 7.27134 7.81274C7.15792 7.92576 7.04451 8.09529 6.9878 8.1518C6.87439 8.26482 6.76098 8.37784 6.87439 8.54737C6.9878 8.77341 7.38476 9.39503 8.00854 9.96013C8.80244 10.6383 9.42622 10.8643 9.65305 10.9773C9.87988 11.0903 9.99329 11.0338 10.1067 10.9208C10.2201 10.8078 10.6171 10.3557 10.7305 10.1297C10.8439 9.90362 11.014 9.96013 11.1841 10.0166C11.3543 10.0732 12.375 10.5817 12.5451 10.6948C12.772 10.8078 12.8854 10.8643 12.9421 10.9208C12.9988 11.0903 12.9988 11.4859 12.8287 11.938Z" fill="url(#paint0_linear_91_171)"/>
<path d="M14.6433 3.34841C13.1122 1.82263 11.0707 0.974976 8.91585 0.974976C4.43597 0.974976 0.806706 4.59164 0.806706 9.05597C0.806706 10.4687 1.20366 11.8815 1.88415 13.0682L0.75 17.25L5.05976 16.1198C6.25061 16.7414 7.55488 17.0804 8.91585 17.0804C13.3957 17.0804 17.025 13.4638 17.025 8.99946C16.9683 6.90857 16.1744 4.87419 14.6433 3.34841ZM12.8287 11.938C12.6585 12.3901 11.8646 12.8422 11.4677 12.8987C11.1274 12.9552 10.6738 12.9552 10.2201 12.8422C9.93659 12.7291 9.53963 12.6161 9.08598 12.3901C7.04451 11.5424 5.74025 9.50805 5.62683 9.33852C5.51342 9.2255 4.77622 8.26482 4.77622 7.24763C4.77622 6.23044 5.28658 5.77836 5.45671 5.55232C5.62683 5.32628 5.85366 5.32628 6.02378 5.32628C6.13719 5.32628 6.30731 5.32628 6.42073 5.32628C6.53414 5.32628 6.70427 5.26977 6.87439 5.66534C7.04451 6.06091 7.44146 7.0781 7.49817 7.13461C7.55488 7.24763 7.55488 7.36065 7.49817 7.47367C7.44146 7.58669 7.38475 7.69971 7.27134 7.81274C7.15792 7.92576 7.04451 8.09529 6.9878 8.1518C6.87439 8.26482 6.76098 8.37784 6.87439 8.54737C6.9878 8.77341 7.38476 9.39503 8.00854 9.96013C8.80244 10.6383 9.42622 10.8643 9.65305 10.9773C9.87988 11.0903 9.99329 11.0338 10.1067 10.9208C10.2201 10.8078 10.6171 10.3557 10.7305 10.1297C10.8439 9.90362 11.014 9.96013 11.1841 10.0166C11.3543 10.0732 12.375 10.5817 12.5451 10.6948C12.772 10.8078 12.8854 10.8643 12.9421 10.9208C12.9988 11.0903 12.9988 11.4859 12.8287 11.938Z" fill="#FEFEFE"/>
<defs>
<linearGradient id="paint0_linear_91_171" x1="3.78506" y1="9.11259" x2="14.0244" y2="9.11259" gradientUnits="userSpaceOnUse">
<stop stop-color="#B37323"/>
<stop offset="0.168627" stop-color="#DCB04B"/>
<stop offset="0.490196" stop-color="#B37323"/>
<stop offset="0.8" stop-color="#DAB04B"/>
<stop offset="1" stop-color="#B37323"/>
</linearGradient>
</defs>
</svg>
